<svg xmlns="http://www.w3.org/2000/svg" width="84.994" height="111.307" viewBox="0 0 84.994 111.307">
  <g id="组_190" data-name="组 190" transform="translate(860.64 213.486)">
    <text id="创始人个人号" transform="translate(-854.264 -106.18)" fill="#6a6a6a" font-size="12.04" font-family="PingFangSC-Regular, PingFang SC"><tspan x="0" y="0">创始人个人号</tspan></text>
    <rect id="矩形_58" data-name="矩形 58" width="84.994" height="84.994" transform="translate(-860.64 -213.486)" fill="#6a6a6a"/>
    <g id="组_189" data-name="组 189">
      <path id="路径_931" data-name="路径 931" d="M-796.234-188.667l2.113.056-.008-.01c-.009,1.249-.01,2.5-.032,3.747-.006.378.232.339.471.339h5.791v4.156c.654,0,1.241.023,1.824-.022.1-.008.255-.3.257-.468.018-1.74.011-3.48.011-5.22v-.522h2.073v2.063h4.137v2.045h-4.082v6.247h2.045v-2h2.05v4.128h-.59c-1.707,0-3.413.012-5.118-.006-.391,0-.537.1-.525.507.015.533-.045,1.067-.072,1.6l.015-.012h-4.106v-2.052h-4.179v2.058c-.565,0-1.083.026-1.6-.008-.413-.028-.528.126-.5.519.031.5.008,1.008.008,1.589h-1.493c-.743,0-1.485-.013-2.227.006-.333.009-.448-.108-.436-.437.02-.535.006-1.072.006-1.638h-2.07v2.1h-4.146l.016.014q-.015-1.08-.031-2.159h2.043v-1.988a3.345,3.345,0,0,1,.528-.088c.894-.008,1.788,0,2.681,0h.946v-2.1h-2.074v-2.026h-2.068c0,1.435,0,2.832,0,4.228l-2.038-.153v2.144c-1.314-.015-1.314-.015-1.314-1.314,0-.756.033-1.514-.011-2.268-.03-.51.161-.661.631-.6a5.6,5.6,0,0,0,.655,0v-2l-.011.013c.482-.029.964-.06,1.446-.085.183-.009.367,0,.624,0,0-.575.021-1.109-.007-1.641-.019-.367.124-.458.467-.454,1.214.016,2.428.007,3.688.007v-4.153h-2.028v-2.115h-.6c-1.723,0-3.446-.009-5.169.008-.389,0-.547-.093-.516-.51.038-.5.009-1.008.009-1.536h-4.175l.014.013v-2.1h-2.051c-.032.69-.061,1.339-.09,1.989l.009-.009-2.037.1.014.026v-2.134h-2.087v-10.436h2.046v-2.084h2.093v-2.058h2.089v2.007h2.058v-6.177h6.255v2.009l.013-.012h-4.114v2.143h4.115l-.013-.013v2.1h2.085v2.017h-2.083v-2h-4.159v2.069H-810.8v2.106h2.042v.6c0,1.03.012,2.06-.008,3.09-.008.359.115.469.465.457.556-.019,1.113.008,1.67.015l-.015-.015v2.079h-4.16v2.109h4.157v2.009h4.173V-190.8h2.025l-.016-.012c.032.678.064,1.356.1,2.05l2.05.1-.013-.016v6.178h2.092v-6.177Zm-16.68-6.278-2.2.038a2.918,2.918,0,0,0,.1-.53c.011-1.061.009-2.123.007-3.184,0-.161-.022-.321-.033-.479h-2.017v4.083l1.94.108a1,1,0,0,1,.1.289c.01.454-.016.909.016,1.361.01.132.164.357.263.363.582.034,1.168.017,1.8.017v-2.08h2.032v-2.081h-2.018Zm18.744,12.488v4.2h-4.12v4.1h2.064v-2.075h4.2v-2.055h1.983v-4.168Zm6.279,6.23h2.047v-2.029h-4.127v4.092h2.08Z" fill="#333"/>
      <path id="路径_932" data-name="路径 932" d="M-802.492-138.6v2.018h-6.286l.016.014V-140.7h-2.1v2.066h-2.07v2.071l.014-.016h-2.07v-2.056h-2.075v-2.078h2.029v-2.1h-4.159v2.1h-4.192q-.008-1.092-.014-2.182h2.147l-.14-2.038h2.193v-1.04c0-1.035,0-1.035,1.032-1.035H-815v2.129h2.062q0,2.061,0,4.128h2.057v-4.112h-2.075l.021-4.187h2.088v4.107h2.045v-8.317h-2.069v-4.242h-2.092l.013.016v-1.981h-4.125v4.144H-819.2v2.084h-2.087v.652q0,3.518,0,7.037a4.78,4.78,0,0,1-.087.634h-2.009v2.033c-.167.012-.335.036-.5.036q-3.618,0-7.234,0h-.53v2.134h2.035v2.014h4.175v-2.026h2.07v2.04h-2.037v2.083h4.109v-2.012h4.178v2.028h-4.134v2.12h2.031v2.015h-2.053v-1.976h-2.075v1.986h-6.306v-2.007h2.085v-2.088h-2.072v2.1h-4.137v1.982h-4.149v-2h2.024v-2.1h4.172v-2.074h-2.037v-2.113h-2.062l.009.015c-.02-.377-.031-.755-.061-1.132-.029-.354-.077-.707-.115-1.06h2.17v-1.946h-2.052c0,.359.015.679,0,1s-.073.636-.111.954l-1.973.11v2.077l.014-.014H-840c-.015-.189-.037-.335-.037-.481,0-2.446.006-4.892-.011-7.338,0-.409.1-.578.534-.546.5.037,1,.009,1.522.009v-2.069h-2.05v-1.4c0-.759.006-1.518-.006-2.277a2.045,2.045,0,0,0-.109-.443l-.011.006h2.193v1.98h2.038l-.01-.017c.021.2.06.4.061.6.005,1.688,0,3.377.005,5.065,0,.2.016.394.025.6h2.059c0-.587-.011-1.127.009-1.666,0-.122.111-.342.178-.345.63-.026,1.262-.015,1.95-.015v4.145h2.015v-6.248l-.014.014,2.157-.029c-.01.574-.009,1.148-.032,1.721-.012.292.108.384.387.379.675-.011,1.351,0,2.027,0h1.724v-2.081h-4.121v-2.075h4.158v-2.081l-.013.013c.505-.006,1.013-.05,1.513-.007s.6-.159.577-.6c-.032-.57-.008-1.144-.008-1.717,0-.6,0-1.2,0-1.843h-2.082l.013.015c-.059-1.3-.059-1.3,1.212-1.3h.051c.852.016.85-.172.83.843,0,.116.012.233.021.389h2.037a6.473,6.473,0,0,0-.005-.723c-.046-.407.118-.518.516-.516,2.4.016,4.8,0,7.194.011a3.523,3.523,0,0,0,2.7-.807v2.069h-2.015v2.07h2.056c0,.583.018,1.118-.007,1.65-.017.359.114.471.465.459.556-.02,1.114,0,1.671.012l-.016-.016v14.623h2.063v2.022l2.107.1Zm-22.975-8.4c-.615,0-1.185-.012-1.754.011-.1,0-.288.146-.291.23-.026.6-.014,1.2-.014,1.826h2.059Z" fill="#333"/>
      <path id="路径_933" data-name="路径 933" d="M-783.736-147.02v2.109h4.136v2.051h-2v2.107h-10.413v2.1h1.959v2.116l.017-.014h-4.109v-4.158h-4.194v-8.35h-2.037v8.336h2.051v6.242h-2.067v-4.11h-2.1l.015.009c-.006-.185-.016-.37-.016-.556q0-7.847-.005-15.694c0-.147-.017-.293-.03-.495h-4.119l.016.016v-4.137h2.01v1.97h4.208v-1.99h2.092l-.014-.015v4.113h2.04v-4.113l-.017.015h2.147v-2.145l-.014.014H-790v2.133h-2.06v2.039h-2.093c0,.851.009,1.638,0,2.425-.008.548-.043,1.1-.065,1.646a3.072,3.072,0,0,1-.545.113c-.468.016-.937,0-1.443,0v2.032h2.089c-.037-.748-.072-1.45-.107-2.152a2.787,2.787,0,0,0,.532.107q2.7.012,5.408,0a3.319,3.319,0,0,0,.372-.038v-2.051h-2.1v-4.143h2.1v-4.189h-2.042v-2.071h4.086a2.746,2.746,0,0,0,.066-.39q.006-2.733,0-5.465a2.828,2.828,0,0,0-.066-.444l-.015.013h2.136v2.071h2.1v4.181h-2.058v2.061h-2.049v2.116h1.593c.726,0,1.452-.011,2.176.016.128,0,.351.168.357.268.034.585.017,1.172.017,1.815h-2.122v8.34l.016-.014h-2.1v-2.033h-2.03v4.124h2.048v2.079h2.081Zm-6.3,4.146v-6.18h-6.18v6.18Zm-8.31-10.342h-2.013v2.015h2.013Zm12.506,10.358v-1.991h-2v1.991Z" fill="#333"/>
      <path id="路径_934" data-name="路径 934" d="M-816.662-174.479a3.389,3.389,0,0,0-.156.476c-.031.178-.1.443-.016.532.544.553.116.992-.117,1.462-.079.16-.135.331-.236.583l2.855-.708c-.129.236-.22.393-.3.554a1.12,1.12,0,0,0,.469,1.567c.1.045.35-.117.459-.245a1.423,1.423,0,0,0,.147-.519c.409.221.814.149.906-.259a4.013,4.013,0,0,0-.054-1.338c-.035-.277-.2-.538-.226-.815-.049-.45-.029-.908-.066-1.361-.005-.06-.17-.107-.351-.213,0,.44.112.845-.032,1.109s-.545.356-.833.525l-.124-.119c.23-.4.459-.8.741-1.295-.26.038-.477.06-.689.1a.782.782,0,0,1-.983-.6,8.9,8.9,0,0,0-.71-1.452c-.059-.1-.3-.1-.451-.144.094-.648.858-1.02,2.012-.985,1.671.051,2.365.806,2.52,2.906l-.734-.67-.082.021c.166.511.323,1.024.5,1.531.154.439.406.859.087,1.34-.029.043.164.338.274.352.5.063,1,.063,1.507.1a2.74,2.74,0,0,1,.593.088c.457.134.461.14.778-.305v1.95c0,2.1-.039,4.191.016,6.284a2.22,2.22,0,0,1-2.22,2.224c-3.057-.046-6.115-.017-9.173-.018h-.507c0-.63-.005-1.2,0-1.765,0-.308-.135-.422-.438-.5a34.606,34.606,0,0,1-3.488-.97c-.726-.263-.912-1.05-1.025-1.747a7.546,7.546,0,0,1,.5-2.965,3.251,3.251,0,0,1,1.01-1.76,8.113,8.113,0,0,1,.762-.523c.178.193.3.327.427.46l.12-.053a1.579,1.579,0,0,1-.054-.512,3.553,3.553,0,0,1,.312-.8c.019-.037.244.011.361.053a4.292,4.292,0,0,1,.489.255c-.071-.289-.108-.442-.146-.6l.156-.038a5.524,5.524,0,0,1,.148.629c.02.163-.03.334-.024.5.009.263.131.423.42.355.521-.122,1.037-.262,1.559-.38.237-.053.482-.071.758-.11a1.747,1.747,0,0,1-1.385,1.236,2.484,2.484,0,0,0-1.561.986.746.746,0,0,0,0,.592c.308.093.821.244.939.1.648-.769,1.579-.6,2.413-.856l-.191-.453c.16,0,.338-.035.357.006.137.285.327.328.531.111s.606-.391.325-.832a1.152,1.152,0,0,1-.116-.481c-.064-.574-.309-.726-.848-.509-.054.021-.107.044-.227-.036.115-.085.238-.162.344-.258a1.8,1.8,0,0,0,.191-.247.874.874,0,0,0-.3-.133,6.3,6.3,0,0,0-.671.034l-.014-.164a.953.953,0,0,1,.264-.041,1.048,1.048,0,0,0,1.334-.747c.088-.247.638-.33.977-.488Z" fill="#333"/>
      <path id="路径_935" data-name="路径 935" d="M-842.075-172.1c-.032.7-.063,1.4-.1,2.2h-4.081l.016.014v-2.138h-2.16v-2.089h-2.058v-4.161h2.043v-2.078l-.013.015h2.157v-4.188l-.014.012h6.243c0,1.22.018,2.384-.01,3.547-.01.444.08.645.577.6s1.011,0,1.517.008l-.015-.013v2.049h6.277v-4.15h4.152V-184.5h4.157v2.01h2.053v1.292h-1.945c-.642,0-1.284.023-1.925,0a3.089,3.089,0,0,0-3.184,2.912h-1.295v2.111l.016-.014h-8.271v-2.057h-8.323v2.031h6.2v2.094h1.166c1.554,0,3.108.009,4.661-.007.328,0,.454.083.439.424-.023.535-.006,1.071-.006,1.634-.169.017-.282.038-.4.038q-3.8,0-7.6,0a2.381,2.381,0,0,1-.3-.041c-.016-.552-.017-1.106-.054-1.658-.009-.131-.13-.362-.208-.366-.614-.03-1.231-.016-1.853-.016v2.026Zm-2.133-8.28c.614,0,1.184.018,1.751-.015a.455.455,0,0,0,.306-.319,11.914,11.914,0,0,0,0-1.463c-.005-.1-.149-.285-.235-.289-.6-.025-1.2-.013-1.826-.013Z" fill="#333"/>
      <path id="路径_936" data-name="路径 936" d="M-846.255-169.9v2.048h-2.123v2.038h2.067v-2h4.141v2.037h-2.036v2.087h2.823c1.347,0,1.347,0,1.342-1.351,0-.216,0-.433,0-.689h2.035v4.116h-2.006c-.01.235-.026.416-.026.6,0,1.707,0,3.413-.009,5.119a3.29,3.29,0,0,1-.121.626l.01-.005-1.967-.055.012.015v-2.145h-2.145l.014.012v-2.035l-.015.012h2.09v-2.145h-2.089l.015.013v-2.066h-6.222v-2.071h-2.062v4.14h2.046v2.11h2.047v2.021h-6.215v2.094h-2.045v-6.2h1.97v-4.175H-856.7v-4.137h2.021c0,.532-.02,1.082.014,1.629.009.142.184.39.287.393,1.264.027,2.53.017,3.844.017v-2.076h-1.989v-2.077h2.031v2.117h4.251Z" fill="#333"/>
      <path id="路径_937" data-name="路径 937" d="M-856.7-209.555h14.524v14.53H-856.7Zm2.051,12.439h10.38v-10.353h-10.38Z" fill="#333"/>
      <path id="路径_938" data-name="路径 938" d="M-794.129-195.017v-14.526h14.534v14.526Zm2.113-12.471v10.375h10.371v-10.375Z" fill="#333"/>
      <path id="路径_939" data-name="路径 939" d="M-842.172-132.428H-856.7v-14.537c.147-.01.292-.03.438-.03,4.528,0,9.055,0,13.583-.011.406,0,.555.091.554.526-.015,4.545-.009,9.089-.011,13.634C-842.137-132.715-842.159-132.585-842.172-132.428Zm-2.1-2.048v-10.391h-10.365v10.391Z" fill="#333"/>
      <path id="路径_940" data-name="路径 940" d="M-833.82-201.239c.009-.572.025-1.144.021-1.716,0-.248.069-.371.34-.37,1.936.007,3.872,0,5.807.009a.426.426,0,0,1,.14.054l-.018-.018v2.056H-829.6v2.115h2.068v2.025l.015-.017h-2.118v4.22h-.855c-1.622,0-3.243-.012-4.864.011-.418.006-.557-.114-.549-.538.025-1.2.009-2.394.009-3.63h-2.04v4.107h-2.08v-6.175h2.057v-6.3l-.014.014h2.074v-4.154h2.057v4.135h-2.015v4.162h2.047v2.116h-2.046v2.063h2.054v2.059h2.072v-6.224Z" fill="#333"/>
      <path id="路径_941" data-name="路径 941" d="M-831.669-186.644v-2.084h2.028V-190.8c.642,0,1.229-.018,1.812.016.106.006.277.218.284.342.031.551.014,1.105.014,1.685h2.082v-2.05h2.052v-2.074h-4.118V-197.1l-.015.017h2.048v-6.2h-2.048l.018.018v-2.1h4.13v8.255h-2.031v2.091h2.017v-2.109h2.058v10.443h-2v-2.009h-2.1v2.036h-6.244Z" fill="#333"/>
      <path id="路径_942" data-name="路径 942" d="M-831.682-186.658v2.124h-2.109v4.165h-4.181l.015.013v-2.114h2.038v-2.074h-2.074v-2.123h-2.07v-2h-2.063v-2.1h-2.119v1.992l-2.039.094.015.024v-2.128h-2.1v-2.05h8.325v2.014h4.157v4.178h4.216Z" fill="#333"/>
      <path id="路径_943" data-name="路径 943" d="M-831.7-169.9v-2.125c1.073,0,2.1-.007,3.12.014.076,0,.21.205.211.317.014,1.165,0,2.33.012,3.5.005.364-.215.364-.461.364-.927,0-1.855,0-2.829,0v2.057h1.965v2.085H-833.8c0,.58-.018,1.112.007,1.643.016.354-.1.478-.461.46-.519-.026-1.04-.007-1.6-.007v-2.08h2.016v-4.142h-4.1V-169.9Z" fill="#333"/>
      <path id="路径_944" data-name="路径 944" d="M-804.62-207.528h2.108v-2h6.226v8.283h-2.069v2.153l.015-.015-2.129-.016.018.01v-4.213h2.088v-4.164h-2.051v2.078h-4.205l.013.013v-2.143Z" fill="#333"/>
      <path id="路径_945" data-name="路径 945" d="M-825.418-207.519v-2.03h6.2v1.988h2.119v-1.982h4.136v2h-2.029v2.132h-4.178v2.055h-2.118c0-1.21-.024-2.389.011-3.566.015-.5-.15-.625-.629-.612C-823.068-207.5-824.23-207.519-825.418-207.519Z" fill="#333"/>
      <path id="路径_946" data-name="路径 946" d="M-835.938-153.29v-4.137h-1.988v-2.043h6.258l-.018-.017v6.255h2.026v2.071l.014-.014H-833.8v-2.036l-2.144-.1Z" fill="#333"/>
      <path id="路径_947" data-name="路径 947" d="M-798.32-159.472V-161.6h-6.247v-2.078h4.148v-4.131h2.083v4.088h4.158v2.118l.014-.014h-2.045c-.036.754-.069,1.449-.1,2.145l.017-.015h-2.04Z" fill="#333"/>
      <path id="路径_948" data-name="路径 948" d="M-831.668-159.47v-2.13h1.734c.506,0,1.012.005,1.519,0a2.12,2.12,0,0,1,1.495.36,6.013,6.013,0,0,0,1.485.613v1.155h2.075l-.013-.015v4.17l.013-.013h-4.179v-2.14h2.064v-1.985h-2.049v2h-2.143v-2.032h-2.019Z" fill="#333"/>
      <path id="路径_949" data-name="路径 949" d="M-781.614-138.61v4.136h2.02v2.042h-6.186v-4.141h2.036v-2.037Z" fill="#333"/>
      <path id="路径_950" data-name="路径 950" d="M-800.469-199.121a.856.856,0,0,1,.064.235q0,3.034-.01,6.07l.017-.022H-802.5v-4.239c-.576,0-1.095.021-1.612-.007-.369-.02-.515.087-.491.477.031.529.008,1.061.008,1.638h-2.047l.015.015v-4.157h6.18Z" fill="#333"/>
      <path id="路径_951" data-name="路径 951" d="M-806.619-169.9v2.04h4.094v2.084h-2.053v2.055h-2.068v-2.044h-1.25v-4.122h1.292Z" fill="#333"/>
      <path id="路径_952" data-name="路径 952" d="M-850.382-153.349c.387.033.774.075,1.163.1.249.015.5,0,.8,0v2.087l.014-.015h-2.067v2.046H-856.7v-2.023h6.156c.057-.774.11-1.488.163-2.2Z" fill="#333"/>
      <path id="路径_953" data-name="路径 953" d="M-812.919-186.655h2.019v5.421h-4.063v-1.248h2.059v-4.186Z" fill="#333"/>
      <path id="路径_954" data-name="路径 954" d="M-846.27-184.525h-4.211c0-.529.01-1.007-.005-1.484a4.737,4.737,0,0,0-.1-.608l-.013.011h2.173v-2.152l2.155.1-.016-.024v4.169Z" fill="#333"/>
      <path id="路径_955" data-name="路径 955" d="M-848.414-180.352h-6.26c0-.668-.01-1.285.012-1.9,0-.078.168-.216.258-.216,1.972-.013,3.944-.01,5.977-.01v2.141Z" fill="#333"/>
      <path id="路径_956" data-name="路径 956" d="M-815.066-186.659v2.124H-816.8c-.673,0-1.347-.009-2.02.005-.286.007-.381-.1-.379-.383.011-1.144,0-2.289.014-3.433,0-.125.139-.354.216-.355.632-.009,1.265.025,1.9.046l-.014-.026v2.039h2.039Z" fill="#333"/>
      <path id="路径_957" data-name="路径 957" d="M-794.156-167.848V-169.9h2.069v4.093h-4.118v-2.04Z" fill="#333"/>
      <path id="路径_958" data-name="路径 958" d="M-790.022-190.8h2.1v4.109h-4.111v-1.988l-.013.009,2.038-.1v-2.047Z" fill="#333"/>
      <path id="路径_959" data-name="路径 959" d="M-794.121-188.611v-4.233h4.1v2.046l.014-.014h-2.038v2.144l.013-.009q-1.05.025-2.1.053Z" fill="#333"/>
      <path id="路径_960" data-name="路径 960" d="M-848.417-151.161h6.248v2.03H-848.4v-2.045Z" fill="#333"/>
      <path id="路径_961" data-name="路径 961" d="M-800.4-192.838l-.017.022c.616-.021,1.232-.053,1.849-.062.751-.01,1.5,0,2.332,0v4.213l-.008-.014h-2.092l.013.016v-2.145h-2.146l.016.012Q-800.424-191.817-800.4-192.838Z" fill="#333"/>
      <path id="路径_962" data-name="路径 962" d="M-808.778-136.577q-.018,1.09-.035,2.181l.013-.012q-1.589-.024-3.177-.046c-.285,0-.57,0-.941,0v-2.123l-.014.016h4.17Z" fill="#333"/>
      <path id="路径_963" data-name="路径 963" d="M-790.05-136.541h2.137v4.1h-2.119c0-1.367,0-2.742,0-4.116Z" fill="#333"/>
      <path id="路径_964" data-name="路径 964" d="M-781.59-151.159v4.139h-2.146l.014.015v-4.17l-.016.014,2.161.016Z" fill="#333"/>
      <path id="路径_965" data-name="路径 965" d="M-854.666-174.037v-4.22h2.073v4.078l-2.086.127Z" fill="#333"/>
      <path id="路径_966" data-name="路径 966" d="M-798.355-199.09h2.081v4.071h-2.065V-199.1Z" fill="#333"/>
      <path id="路径_967" data-name="路径 967" d="M-808.813-134.4c.823-.019,1.646-.043,2.469-.056.555-.009,1.11,0,1.705,0v2.016H-808.8c0-.67,0-1.321,0-1.971Z" fill="#333"/>
      <path id="路径_968" data-name="路径 968" d="M-854.7-186.648h-2v-4.125h1.984v4.138Z" fill="#333"/>
      <path id="路径_969" data-name="路径 969" d="M-806.656-178.212l-1.065-.1c-.343-.68-.643-1.269-.939-1.861a.671.671,0,0,1-.092-.266c-.007-.653,0-1.305,0-2.043h2.129l-.014-.015q-.012,2.148-.025,4.3Z" fill="#333"/>
      <path id="路径_970" data-name="路径 970" d="M-852.582-186.666v2.134h-2.123l.014.015q0-1.066-.007-2.131l-.014.013,2.146-.017Z" fill="#333"/>
      <path id="路径_971" data-name="路径 971" d="M-789.972-167.893v-2h2.05v2Z" fill="#333"/>
      <path id="路径_972" data-name="路径 972" d="M-837.955-205.41h-2.053v-2.07h2.039v2.084Z" fill="#333"/>
      <path id="路径_973" data-name="路径 973" d="M-852.566-186.652V-188.7h2.123c-.051.711-.1,1.4-.152,2.09l.012-.01-2-.049Z" fill="#333"/>
      <path id="路径_974" data-name="路径 974" d="M-783.736-190.81v2.05h-2.047V-190.8h2.061Z" fill="#333"/>
      <path id="路径_975" data-name="路径 975" d="M-842.125-155.331v2.047h-2.118v-2.045l-.015.013h2.145Z" fill="#333"/>
      <path id="路径_976" data-name="路径 976" d="M-829.7-207.575v2.14h-1.962v-2.128h1.975Z" fill="#333"/>
      <path id="路径_977" data-name="路径 977" d="M-829.684-207.563v-1.979h2.117v1.969H-829.7Z" fill="#333"/>
      <path id="路径_978" data-name="路径 978" d="M-844.243-155.329h-2.005v-2.12h2l-.014-.012v2.145Z" fill="#333"/>
      <path id="路径_979" data-name="路径 979" d="M-781.61-157.411h2.008v2.072c-.6,0-1.2.008-1.8-.01a.312.312,0,0,1-.2-.228C-781.618-156.179-781.61-156.781-781.61-157.411Z" fill="#333"/>
      <path id="路径_980" data-name="路径 980" d="M-844.244-159.484h-2.006v-2.12h2.007l-.015-.013v2.145Z" fill="#333"/>
      <path id="路径_981" data-name="路径 981" d="M-783.722-190.8v-2.05h2.128v2.035l.014-.015-2.156.016Z" fill="#333"/>
      <path id="路径_982" data-name="路径 982" d="M-792.1-132.423h-2.019v-1.987h2.019Z" fill="#333"/>
      <path id="路径_983" data-name="路径 983" d="M-781.576-151.145v-2.076h1.993v2.061h-2.007Z" fill="#333"/>
      <path id="路径_984" data-name="路径 984" d="M-835.835-140.734v2.046h-2.123v-2.045l-.014.014h2.146Z" fill="#333"/>
      <path id="路径_985" data-name="路径 985" d="M-854.679-174.052v1.984H-856.7v-2.093l2.036.123Z" fill="#333"/>
      <path id="路径_986" data-name="路径 986" d="M-850.38-153.355l-2.14.152v-2.1h2.037c0,.483-.009.964,0,1.444a3.081,3.081,0,0,0,.1.507Z" fill="#333"/>
      <path id="路径_987" data-name="路径 987" d="M-812.9-186.668l-2.162.009.017.017q0-1.071,0-2.143l-.009.009c.2.016.4.038.595.048.515.024,1.031.042,1.546.062l-.014-.013q.008,1.013.013,2.025Z" fill="#333"/>
      <path id="路径_988" data-name="路径 988" d="M-781.594-190.811h2v2.06h-1.984v-2.074Z" fill="#333"/>
      <path id="路径_989" data-name="路径 989" d="M-806.627-182.482v-2.008h1.986v1.993h-2Z" fill="#333"/>
      <path id="路径_990" data-name="路径 990" d="M-854.705-184.532v2.012h-1.988v-2h2Z" fill="#333"/>
      <path id="路径_991" data-name="路径 991" d="M-817.144-182.476c.158,1.276.158,1.276-1.024,1.275h-.151c-.925,0-1.011-.092-.866-1a.394.394,0,0,1,.26-.266C-818.341-182.488-817.756-182.476-817.144-182.476Z" fill="#333"/>
      <path id="路径_992" data-name="路径 992" d="M-829.682-176.183c1.331-.1,1.33-.1,1.323,1.228,0,.249,0,.5,0,.787h-1.306v-2.03Z" fill="#333"/>
      <path id="路径_993" data-name="路径 993" d="M-816.647-174.465a.869.869,0,0,1-.16-.254c-.071-.364-.275-.758.107-1.064.226-.181.909.045,1.077.415a1.226,1.226,0,0,1-.023.807c-.032.1-.338.14-.523.155a2.079,2.079,0,0,1-.494-.073Z" fill="#333"/>
      <path id="路径_994" data-name="路径 994" d="M-812.919-149.028l-2.074-.1v-2.015h-2.087v2.013h-2.091v-4.122c.526,0,1.03-.031,1.528.009.462.036.584-.142.555-.576-.034-.5,0-1.011,0-1.517h2.075v2.079h2.094Z" fill="#333"/>
      <path id="路径_995" data-name="路径 995" d="M-812.96-157.494v2.113h-2.008v-2.1h2.022Z" fill="#333"/>
      <path id="路径_996" data-name="路径 996" d="M-792.1-144.923h-2.027v-2.044h2.027Z" fill="#333"/>
      <path id="路径_997" data-name="路径 997" d="M-844.257-188.79c.531.02,1.063.037,1.6.061.182.008.365.032.547.048v2h-2.142Z" fill="#333"/>
      <path id="路径_998" data-name="路径 998" d="M-852.532-205.386h6.2v6.208h-6.2Z" fill="#333"/>
      <path id="路径_999" data-name="路径 999" d="M-783.752-205.368v6.2h-6.211v-6.2Z" fill="#333"/>
      <path id="路径_1000" data-name="路径 1000" d="M-852.535-136.6v-6.205h6.211v6.205Z" fill="#333"/>
    </g>
    <g id="路径_1001" data-name="路径 1001" fill="#333" stroke-miterlimit="10">
      <path d="M -818.1439819335938 -159.0469207763672 C -824.7283325195312 -159.0469207763672 -830.0850830078125 -164.4041137695312 -830.0850830078125 -170.9889984130859 C -830.0850830078125 -177.5738983154297 -824.7283325195312 -182.9310913085938 -818.1439819335938 -182.9310913085938 C -811.55908203125 -182.9310913085938 -806.201904296875 -177.5738983154297 -806.201904296875 -170.9889984130859 C -806.201904296875 -164.4041137695312 -811.55908203125 -159.0469207763672 -818.1439819335938 -159.0469207763672 Z" stroke="none"/>
      <path d="M -818.1439819335938 -159.5140075683594 C -811.8170166015625 -159.5140075683594 -806.6690063476562 -164.6609954833984 -806.6690063476562 -170.9889984130859 C -806.6690063476562 -177.3150024414062 -811.8170166015625 -182.4640045166016 -818.1439819335938 -182.4640045166016 C -824.4710083007812 -182.4640045166016 -829.6179809570312 -177.3150024414062 -829.6179809570312 -170.9889984130859 C -829.6179809570312 -164.6609954833984 -824.4710083007812 -159.5140075683594 -818.1439819335938 -159.5140075683594 M -818.1439819335938 -158.5798187255859 C -824.9859008789062 -158.5798187255859 -830.5521850585938 -164.1465606689453 -830.5521850585938 -170.9889984130859 C -830.5521850585938 -177.8314361572266 -824.9859008789062 -183.3981781005859 -818.1439819335938 -183.3981781005859 C -811.3015747070312 -183.3981781005859 -805.7348022460938 -177.8314361572266 -805.7348022460938 -170.9889984130859 C -805.7348022460938 -164.1465606689453 -811.3015747070312 -158.5798187255859 -818.1439819335938 -158.5798187255859 Z" stroke="none" fill="#6a6a6a"/>
    </g>
    <path id="路径_1002" data-name="路径 1002" d="M-817.581-173.8h-2.267v3.154h2.25a1.542,1.542,0,0,0,1.653-1.518A1.635,1.635,0,0,0-817.581-173.8Z" fill="#6a6a6a"/>
    <path id="路径_1003" data-name="路径 1003" d="M-818.144-180.073a9.1,9.1,0,0,0-9.085,9.084,9.1,9.1,0,0,0,9.085,9.085,9.1,9.1,0,0,0,9.085-9.085A9.1,9.1,0,0,0-818.144-180.073Zm2.064,14.626-1.824-2.762h-1.944v2.762h-2.712V-176.53h5.388a4.13,4.13,0,0,1,3.974,4.365,3.662,3.662,0,0,1-1.979,3.376l2.44,3.342Z" fill="#6a6a6a"/>
  </g>
</svg>
