<svg xmlns="http://www.w3.org/2000/svg" width="85.355" height="111.307" viewBox="0 0 85.355 111.307">
  <g id="组_188" data-name="组 188" transform="translate(978.314 213.486)">
    <rect id="矩形_57" data-name="矩形 57" width="84.994" height="84.994" transform="translate(-978.315 -213.486)" fill="#6a6a6a"/>
    <g id="组_187" data-name="组 187">
      <g id="组_185" data-name="组 185">
        <path id="路径_871" data-name="路径 871" d="M-970.239-159.472c-.7-.006-1.4,0-2.1,0,.012,1.376,0,2.755,0,4.132.6.007,1.206-.013,1.809,0,.039.031.118.09.156.119l.123.154c.018.6,0,1.21.006,1.814-.546,0-1.091,0-1.638,0a.38.38,0,0,0-.458.464c0,.544,0,1.088,0,1.632-.7,0-1.4,0-2.093,0,0,.7,0,1.391,0,2.087,2.788,0,5.576.005,8.365,0,0-.694,0-1.389,0-2.083-.7-.009-1.394,0-2.09,0-.012-1.307.008-2.613-.009-3.919l-.067-.188a8.912,8.912,0,0,0-2.042-.06C-970.214-156.707-970.252-158.09-970.239-159.472Z" fill="#333"/>
        <path id="路径_872" data-name="路径 872" d="M-974.419-163.667h4.174c.011-1.4,0-2.789,0-4.184-.639,0-1.278.013-1.916-.022l-.136.1c-.081.667-.018,1.343-.044,2.013-.7,0-1.392,0-2.089,0C-974.422-165.06-974.429-164.363-974.419-163.667Z" fill="#333"/>
        <path id="路径_873" data-name="路径 873" d="M-974.426-159.531c.7.007,1.4,0,2.1.008-.017-.7,0-1.4-.016-2.1a17.1,17.1,0,0,0-2.087.061Q-974.423-160.546-974.426-159.531Z" fill="#333"/>
        <path id="路径_874" data-name="路径 874" d="M-911.792-186.634a9.966,9.966,0,0,0,2.034-.084,14.67,14.67,0,0,0,.055-2c-.7-.015-1.4,0-2.1-.015C-911.788-188.036-911.8-187.335-911.792-186.634Z" fill="#333"/>
        <path id="路径_875" data-name="路径 875" d="M-974.426-153.254c.614,0,1.228.011,1.843,0a.394.394,0,0,0,.255-.468c0-.542-.006-1.084-.005-1.625h-2.09C-974.424-154.646-974.424-153.951-974.426-153.254Z" fill="#333"/>
        <path id="路径_876" data-name="路径 876" d="M-961.871-151.163c.007.7,0,1.4.008,2.1.677,0,1.356,0,2.033,0,.01-.7,0-1.4.011-2.1C-960.5-151.155-961.187-151.158-961.871-151.163Z" fill="#333"/>
        <path id="路径_877" data-name="路径 877" d="M-974.423-132.377q7.3,0,14.595,0c.008-4.867,0-9.734,0-14.6-4.867,0-9.734,0-14.6,0Q-974.42-139.675-974.423-132.377Zm2.09-12.505h10.417q0,5.208,0,10.415-5.206,0-10.415,0Z" fill="#333"/>
        <path id="路径_878" data-name="路径 878" d="M-901.381-205.419c-2.093.007-4.186-.009-6.28.008.009,1.993,0,3.986.006,5.979-.05.263.244.327.44.292q2.913,0,5.826,0C-901.371-201.234-901.386-203.326-901.381-205.419Z" fill="#333"/>
        <path id="路径_879" data-name="路径 879" d="M-972.579-169.943c-.616-.009-1.231,0-1.847,0q0,1.043,0,2.089a10.742,10.742,0,0,0,2-.073,5.454,5.454,0,0,0,.094-1.547A.4.4,0,0,0-972.579-169.943Z" fill="#333"/>
        <path id="路径_880" data-name="路径 880" d="M-897.2-209.6q-7.3-.006-14.594,0c-.009,4.868,0,9.734-.005,14.6,4.867,0,9.734,0,14.6,0Q-897.2-202.3-897.2-209.6ZM-909.7-197.1q0-5.206,0-10.415,5.207,0,10.413,0,0,5.208,0,10.414Z" fill="#333"/>
        <path id="路径_881" data-name="路径 881" d="M-963.976-142.688l-.126-.137c-2.043-.028-4.087,0-6.13-.013-.018,2.094,0,4.187-.007,6.279,2.092-.007,4.185.01,6.277-.008C-963.976-138.608-963.945-140.649-963.976-142.688Z" fill="#333"/>
        <path id="路径_882" data-name="路径 882" d="M-938.954-203.326a15.339,15.339,0,0,0-.046-2.023l-.122-.09c-.641.033-1.28.016-1.921.024,0,.7,0,1.391,0,2.086C-940.345-203.323-939.649-203.327-938.954-203.326Z" fill="#333"/>
        <path id="路径_883" data-name="路径 883" d="M-922.259-205.418c0-.7,0-1.4,0-2.092h-6.229q0,1.047,0,2.093Q-925.371-205.418-922.259-205.418Z" fill="#333"/>
        <path id="路径_884" data-name="路径 884" d="M-934.766-209.6c-.7,0-1.392,0-2.089,0q0,1.046,0,2.091c.7,0,1.4,0,2.091,0Q-934.765-208.556-934.766-209.6Z" fill="#333"/>
        <path id="路径_885" data-name="路径 885" d="M-938.953-209.6c-.7,0-1.392,0-2.087,0,0,.694,0,1.39,0,2.084.7.007,1.4,0,2.092,0C-938.95-208.208-938.947-208.906-938.953-209.6Z" fill="#333"/>
        <path id="路径_886" data-name="路径 886" d="M-938.874-205.5a9.86,9.86,0,0,0,2.016.081c0-.7,0-1.394,0-2.091q-1.048,0-2.093,0A10.676,10.676,0,0,0-938.874-205.5Z" fill="#333"/>
        <path id="路径_887" data-name="路径 887" d="M-966.055-188.727c0-1.394,0-2.787,0-4.181-.7-.007-1.391,0-2.086,0q-.011,4.185,0,8.37c1.388-.026,2.782.048,4.166-.036.035-1.38,0-2.761.015-4.141C-964.659-188.733-965.357-188.726-966.055-188.727Z" fill="#333"/>
        <path id="路径_888" data-name="路径 888" d="M-922.258-203.322c0,.7.006,1.393-.005,2.09-1.394,0-2.786-.009-4.179,0,0,.311,0,.623,0,.934a11.267,11.267,0,0,0,.073,1.148c2.019.009,4.04,0,6.06.005l.129.049c.047,1.357,0,2.724.018,4.085.7,0,1.4,0,2.093,0,0-.7,0-1.391.006-2.087.693-.009,1.387,0,2.081,0,.011.7,0,1.395.005,2.092.7,0,1.4,0,2.094,0q0-5.2,0-10.407c-.7-.006-1.395,0-2.092,0,0-1.394,0-2.789,0-4.183q-2.093,0-4.182,0,0,2.091,0,4.181c.7.005,1.393,0,2.091,0,0,.7,0,1.4,0,2.093C-919.471-203.324-920.864-203.331-922.258-203.322Zm4.18,4.177a13.522,13.522,0,0,1-2.005-.052,10.1,10.1,0,0,1-.083-2.033c.7-.008,1.4,0,2.093,0C-918.074-200.538-918.068-199.842-918.078-199.145Z" fill="#333"/>
        <path id="路径_889" data-name="路径 889" d="M-915.979-186.635c.7,0,1.392,0,2.089,0,0-.7,0-1.392,0-2.089h-2.092C-915.979-188.03-915.983-187.332-915.979-186.635Z" fill="#333"/>
        <path id="路径_890" data-name="路径 890" d="M-911.85-188.723c0-.7,0-1.4,0-2.1h-2.033c0,.7,0,1.4,0,2.092C-913.21-188.726-912.53-188.731-911.85-188.723Z" fill="#333"/>
        <path id="路径_891" data-name="路径 891" d="M-905.569-184.542c0-.7,0-1.395,0-2.093-1.329.008-2.657-.013-3.985.008l-.152.1c-.016.665.008,1.331,0,2C-908.325-184.554-906.947-184.538-905.569-184.542Z" fill="#333"/>
        <path id="路径_892" data-name="路径 892" d="M-959.828-209.6q-7.3.006-14.595,0-.006,7.3,0,14.6c4.868.008,9.735,0,14.6,0C-959.83-199.87-959.82-204.736-959.828-209.6Zm-2.09,12.508h-10.415q0-5.208,0-10.414,5.2,0,10.413,0Q-961.915-202.3-961.918-197.1Z" fill="#333"/>
        <path id="路径_893" data-name="路径 893" d="M-961.913-188.721a15.8,15.8,0,0,0,.051,2.087h2.036c0-.7,0-1.4,0-2.093C-960.521-188.726-961.218-188.731-961.913-188.721Z" fill="#333"/>
        <path id="路径_894" data-name="路径 894" d="M-959.83-192.912q-1.011,0-2.025,0a15.787,15.787,0,0,0-.063,2.087c.7.015,1.4,0,2.092.008C-959.827-191.517-959.822-192.216-959.83-192.912Z" fill="#333"/>
        <path id="路径_895" data-name="路径 895" d="M-953.55-205.419q0-2.092,0-4.184c-1.394,0-2.787,0-4.181,0,0,1.392,0,2.786,0,4.178C-956.339-205.415-954.944-205.421-953.55-205.419Z" fill="#333"/>
        <path id="路径_896" data-name="路径 896" d="M-970.232-199.14c2.043-.012,4.086.015,6.128-.013.033-.034.1-.1.128-.138.031-2.038,0-4.08.014-6.118-2.093-.02-4.185,0-6.279-.01C-970.234-203.326-970.25-201.234-970.232-199.14Z" fill="#333"/>
        <path id="路径_897" data-name="路径 897" d="M-953.548-192.911c.7,0,1.394,0,2.093,0q0-2.065,0-4.129c-.7-.007-1.4,0-2.1-.006C-953.54-195.669-953.553-194.291-953.548-192.911Z" fill="#333"/>
        <path id="路径_898" data-name="路径 898" d="M-922.259-142.853c0-1.374,0-2.748,0-4.122-.7,0-1.4,0-2.093.005,0,.7.009,1.393-.011,2.089-2.072,0-4.145,0-6.217,0a10.722,10.722,0,0,0,.077,2.045q3.07,0,6.14,0c.02.7.01,1.391.01,2.088.7.01,1.391.006,2.086,0,.017,1.4,0,2.792.007,4.187-1.394,0-2.789,0-4.184,0q0-.392,0-.779a10.942,10.942,0,0,1,.065-1.306c-.7-.012-1.406-.007-2.108-.006-.01-.693.019-1.385-.014-2.077-.694-.046-1.391,0-2.085-.012a11.049,11.049,0,0,0-.065-2.037,1.788,1.788,0,0,0-.68-.063c-1.144.008-2.288,0-3.432,0q0-1.024,0-2.048a9.546,9.546,0,0,0,2.088-.091c.014-.666,0-1.331.006-2-.7-.007-1.393,0-2.088,0-.015-1.293,0-2.585-.007-3.878-.02-.053-.059-.16-.077-.213a8.739,8.739,0,0,0-1.844-.111c-.08.154-.217.3-.169.491-.006,1.236.006,2.474-.006,3.711h-2.082c-.009-.7-.005-1.395-.005-2.091-.7,0-1.4-.007-2.093.006q0,4.153,0,8.31c.625.011,1.252,0,1.878.015.074-.093.147-.186.221-.277-.017-1.284,0-2.57-.01-3.855a17.953,17.953,0,0,1,2.087-.065c.019,1.4.005,2.791.008,4.186.7,0,1.392,0,2.089,0,.009.7,0,1.393,0,2.092q1.049,0,2.094,0c0-.7-.006-1.395.005-2.092.606.009,1.213-.012,1.82.007.038.025.114.079.153.1s.081.114.108.15c.02.609,0,1.217.006,1.826-.7.01-1.394.006-2.091,0-.006,1.4,0,2.789,0,4.184-.543.006-1.086-.006-1.627,0-.2-.058-.333.1-.485.184.035.635.011,1.271.021,1.908q3.108,0,6.219,0c.008-.7,0-1.4,0-2.1-.68,0-1.36,0-2.04,0,0-.7,0-1.4,0-2.093h4.135q0,1.041,0,2.086c.716.015,1.433-.007,2.149.019,0,.693-.005,1.387,0,2.081q1.016,0,2.031,0c0-.7,0-1.392,0-2.089.7-.007,1.394,0,2.092,0,0-2.773,0-5.548,0-8.323A17.059,17.059,0,0,1-922.259-142.853Z" fill="#333"/>
        <path id="路径_899" data-name="路径 899" d="M-955.646-140.746c-.7,0-1.39,0-2.084,0-.005.695,0,1.39,0,2.085.7.008,1.4,0,2.093.006C-955.642-139.351-955.636-140.048-955.646-140.746Z" fill="#333"/>
        <path id="路径_900" data-name="路径 900" d="M-924.35-138.652c0-.7,0-1.4,0-2.094-.66.009-1.322-.012-1.983.007a8.271,8.271,0,0,0-.105,2.074C-925.745-138.643-925.047-138.655-924.35-138.652Z" fill="#333"/>
        <path id="路径_901" data-name="路径 901" d="M-941.146-134.389l-.209-.074c-1.291-.018-2.582.01-3.874-.013,0-.7,0-1.389,0-2.084h-4.133c0,.7,0,1.4,0,2.093.7,0,1.395-.007,2.092,0,0,.7,0,1.391,0,2.087q3.114,0,6.224,0A7.66,7.66,0,0,0-941.146-134.389Z" fill="#333"/>
        <path id="路径_902" data-name="路径 902" d="M-951.45-140.746c.694,0,1.389,0,2.082,0,.006.7.005,1.394.005,2.091,1.4-.009,2.8.016,4.2-.014-.023-.212-.048-.424-.073-.634a14.6,14.6,0,0,0,.05-1.824,11.031,11.031,0,0,0-.07-1.715c-.674,0-1.347,0-2.02,0,0-.68,0-1.36,0-2.039-1.395-.015-2.791,0-4.187-.008,0,.681,0,1.361,0,2.043-.69.014-1.381-.015-2.069.014-.058,2.086-.009,4.178-.024,6.267q-1.047,0-2.092,0,0,2.091,0,4.181c2.092,0,4.182.005,6.274,0,0-.7,0-1.392,0-2.089h0c-.7,0-1.394,0-2.092,0C-951.454-136.56-951.464-138.652-951.45-140.746Z" fill="#333"/>
        <path id="路径_903" data-name="路径 903" d="M-913.887-134.467c0-.7,0-1.394,0-2.089-1.4-.007-2.788,0-4.182,0,0,.7,0,1.394,0,2.092.7,0,1.4,0,2.092,0,0,.7,0,1.394,0,2.092,2.091-.007,4.183.006,6.273-.007,0-.694,0-1.386,0-2.079C-911.1-134.476-912.492-134.463-913.887-134.467Z" fill="#333"/>
        <path id="路径_904" data-name="路径 904" d="M-934.76-134.923c0-.547-.006-1.092-.006-1.636-1.394,0-2.789,0-4.184,0q0-1.047,0-2.09c-.7,0-1.394,0-2.09,0,0,1.3-.01,2.6,0,3.9.016.049.047.145.061.2a9.492,9.492,0,0,0,2.028.088c0,.695,0,1.392,0,2.09.7,0,1.392,0,2.089,0q0-1.046,0-2.092c.543,0,1.085,0,1.628,0A.382.382,0,0,0-934.76-134.923Z" fill="#333"/>
        <path id="路径_905" data-name="路径 905" d="M-936.856-138.652c0-.7,0-1.4,0-2.092-.615,0-1.232-.007-1.848,0a.34.34,0,0,0-.248.435c0,.552.007,1.105,0,1.657C-938.252-138.651-937.555-138.654-936.856-138.652Z" fill="#333"/>
        <path id="路径_906" data-name="路径 906" d="M-901.382-134.466c0,.7,0,1.393,0,2.091,1.394,0,2.787,0,4.181,0,0-.7,0-1.392,0-2.087C-898.592-134.47-899.987-134.467-901.382-134.466Z" fill="#333"/>
        <path id="路径_907" data-name="路径 907" d="M-918.073-149.066c-.7,0-1.4,0-2.093,0,0,.7,0,1.392,0,2.089h2.089Q-918.073-148.02-918.073-149.066Z" fill="#333"/>
        <path id="路径_908" data-name="路径 908" d="M-899.286-157.435c-.008,2.092,0,4.184,0,6.276.7,0,1.394,0,2.091,0q0-3.137,0-6.273Q-898.243-157.437-899.286-157.435Z" fill="#333"/>
        <path id="路径_909" data-name="路径 909" d="M-897.2-149.064c-.7-.005-1.393,0-2.089,0-.005-.7,0-1.4,0-2.092q-4.158,0-8.316,0c-.005-.7,0-1.4-.005-2.1,2.075.013,4.153,0,6.229.006,0-1.395.005-2.79,0-4.185-.7,0-1.393,0-2.09,0,0-.7.005-1.394-.006-2.089-.7,0-1.391,0-2.086-.005,0-.673,0-1.346,0-2.019,1.388-.136,2.788-.049,4.182-.058.011.694.005,1.386.005,2.08.638,0,1.275,0,1.912,0l.029-.178c.008.048.026.142.035.19-.673.13-1.369.031-2.049.094.735-.019,1.468,0,2.2.011-.058-.736-.039-1.475-.03-2.213.7,0,1.39,0,2.085,0q0-2.066,0-4.131c-.7-.006-1.392,0-2.089,0-.087-.7.18-1.478-.172-2.11-.642.032-1.283.013-1.924.017,0,.7,0,1.4,0,2.093-.7,0-1.392,0-2.089,0,0,.7.007,1.393-.007,2.088q-3.106,0-6.212,0c-.019-.7-.008-1.4-.009-2.094,1.376,0,2.753,0,4.13,0,.02-1.4-.005-2.8.013-4.2-1.381.022-2.764,0-4.145.011a15.745,15.745,0,0,1-.059,2.094c-.677,0-1.354,0-2.031,0q0,3.111,0,6.221c-.7.017-1.4.007-2.095.01,0-.682,0-1.362,0-2.042-.7-.008-1.4,0-2.095-.005,0,1.379,0,2.759,0,4.139-1.395,0-2.79,0-4.185,0,0-.679,0-1.357,0-2.036a20.914,20.914,0,0,1,2.1-.057c-.005-.682,0-1.362,0-2.042-.7-.006-1.393.016-2.09-.018-.006-.692,0-1.383,0-2.074,2.092,0,4.184,0,6.276,0,.005-.695,0-1.391,0-2.086q-3.141-.011-6.279,0c0,.7,0,1.393,0,2.089h0c-1.4.007-2.789-.01-4.184.01,0,1.365.008,2.731,0,4.1l.314.039c.591-.013,1.182-.007,1.775-.007.017.7.005,1.393.009,2.09-1.382,0-2.764,0-4.148,0,.012-.362.015-.722.018-1.081,0-.268,0-.534,0-.8a2.385,2.385,0,0,1-1.617.631h-.1c-.131.016-.261.033-.39.052q0,.6.005,1.2c.68-.006,1.362.01,2.042-.013.011,1.4,0,2.8.005,4.194q1.046,0,2.089,0c.006,1.395,0,2.79,0,4.186-1.379,0-2.758,0-4.136,0a8.518,8.518,0,0,1-.1,2.088c-.663.016-1.325,0-1.987.005,0-.7,0-1.392,0-2.088-.644-.011-1.288.006-1.93-.025l-.113.091a15.5,15.5,0,0,0-.045,2.022c.7,0,1.392,0,2.088,0,0,.7-.006,1.393.007,2.09q3.108,0,6.217,0c.012-1.394,0-2.789.005-4.182,2.79-.007,5.579,0,8.369,0,0-.7,0-1.394,0-2.091-.7,0-1.4,0-2.095,0,0-1.395,0-2.79,0-4.184h2.089c0,.7,0,1.4,0,2.093h2.092c0-.7,0-1.394,0-2.091,1.353-.015,2.706.028,4.059-.024a1.437,1.437,0,0,1,.129.771c-.01.449-.005.9-.005,1.345.681,0,1.364.008,2.047-.011-.005.7-.005,1.406,0,2.11-1.381-.017-2.76,0-4.141-.007,0-.7,0-1.392,0-2.089-.7-.007-1.4,0-2.092,0,0,1.393,0,2.788,0,4.182-.7,0-1.393,0-2.09,0-.006,1.395.005,2.789-.006,4.184h-2.089c0,.7.006,1.391,0,2.086-.7.01-1.393,0-2.089.01,0,.68.011,1.362-.009,2.043,1.4.02,2.8-.052,4.194.041,0,.681,0,1.364,0,2.047-.7,0-1.391,0-2.086,0-.011.7,0,1.4-.006,2.092,2.092-.005,4.186.009,6.279-.007,0-.7-.007-1.391,0-2.087,2.712.014,5.422-.022,8.132.018l.139-.1a19.517,19.517,0,0,0,.048-1.966,16.508,16.508,0,0,1-2.1-.067c.006-2.068,0-4.136,0-6.2,1.395-.016,2.79,0,4.185-.006,0,.7.005,1.394-.006,2.092-.7,0-1.393,0-2.088,0-.005,1.378.014,2.758-.01,4.136.7,0,1.406,0,2.11,0-.012-.684,0-1.367-.007-2.049,1.189,0,2.379,0,3.57,0a1.349,1.349,0,0,0,.61-.09C-897.187-146.335-897.2-147.7-897.2-149.064Zm-25.061-4.191c0-1.393,0-2.786,0-4.179.7,0,1.39,0,2.085,0,.01,1.4,0,2.79.006,4.185C-920.863-153.253-921.56-153.248-922.258-153.255Zm6.278-4.181h0c0-.7,0-1.395,0-2.092.7.008,1.392-.026,2.088.028,0,.687,0,1.374,0,2.062C-914.585-157.434-915.282-157.436-915.98-157.436Zm8.322,14.6q-3.114,0-6.231,0v-6.231h6.231Q-907.655-145.95-907.658-142.836Zm-.017-14.6c-.618.01-1.238-.018-1.853.024-.082-.045-.161-.091-.24-.136.145-1.352.014-2.716.077-4.072q1.009,0,2.019,0c.023.694.013,1.388.011,2.084.7.018,1.393.007,2.09.008.011,1.4,0,2.792.005,4.187-.681,0-1.363,0-2.044,0A17.69,17.69,0,0,0-907.675-157.438Z" fill="#333"/>
        <path id="路径_910" data-name="路径 910" d="M-911.784-144.882c.643-.011,1.288.021,1.932-.014.035-.032.1-.1.136-.129.034-.645,0-1.293.014-1.939-.7-.021-1.4-.007-2.095-.011C-911.794-146.278-911.8-145.58-911.784-144.882Z" fill="#333"/>
        <path id="路径_911" data-name="路径 911" d="M-899.29-140.744q0-1.023,0-2.042c-.7,0-1.4,0-2.1,0,.011.68,0,1.361.005,2.043a14.1,14.1,0,0,0-2.027.056,1.55,1.55,0,0,0-.066.685c.014,1.1-.023,2.2.022,3.292-.025.027-.077.08-.1.108a17.088,17.088,0,0,1-2.011.037c0-.7,0-1.391,0-2.086-.693.014-1.387-.031-2.076.021-.03,1.413,0,2.826-.012,4.24a17.394,17.394,0,0,0,.051,2.017q1.017,0,2.038,0c0-.7,0-1.392,0-2.088.7-.008,1.4,0,2.093,0,.006-.67-.007-1.343-.008-2.009l.053-.052c.68-.067,1.366-.021,2.048-.032,0-.7,0-1.4,0-2.093.7,0,1.391,0,2.086,0,.007.7,0,1.4,0,2.1.7,0,1.395,0,2.093,0,0-1.394,0-2.787,0-4.181C-897.9-140.746-898.593-140.744-899.29-140.744Z" fill="#333"/>
        <path id="路径_912" data-name="路径 912" d="M-899.29-169.943c0,.645.017,1.291-.018,1.938.641.325,1.413.078,2.11.152q0-3.135,0-6.273c-.7,0-1.392,0-2.088,0-.005.7,0,1.394,0,2.091h-2.093c0-1.4,0-2.789,0-4.184h2.094c0-.682,0-1.363-.005-2.043.7.032,1.4-.037,2.1-.063-.008-4.861,0-9.722-.005-14.584-1.393,0-2.786,0-4.179,0-.005.7,0,1.394,0,2.092h-2.091c0-.7,0-1.4-.008-2.093-2.069,0-4.139.005-6.208,0a16.866,16.866,0,0,0-.066,2.085c2.093.024,4.187,0,6.28.011q0,1.043,0,2.089c1.395.007,2.79,0,4.186,0q0,3.113,0,6.222c-.7,0-1.4,0-2.1,0,.011-.68,0-1.36.006-2.04-1.4,0-2.79,0-4.185,0,.006,1.36-.01,2.72.006,4.079a6.346,6.346,0,0,0,1.876.092l.216.3c-.009.6-.01,1.2,0,1.8.7,0,1.393,0,2.09,0-.009.68-.005,1.361-.005,2.041-1.386,0-2.773,0-4.16,0-.047.7-.019,1.394-.025,2.092-.7,0-1.4,0-2.092,0,0,.694,0,1.387,0,2.081.7.011,1.394.006,2.09.006a19.106,19.106,0,0,0,.057,2.1c.678-.013,1.358,0,2.038-.007,0,.7,0,1.394,0,2.09q1.044,0,2.09,0,0-1.046,0-2.091C-900.685-169.945-899.988-169.943-899.29-169.943Zm-4.208-10.533c.045-.656.018-1.313.023-1.97.7-.009,1.4,0,2.1-.009-.013.7,0,1.4-.008,2.1A7.849,7.849,0,0,1-903.5-180.476Zm2.106,2.168c.017-.679.011-1.356.007-2.033a14.045,14.045,0,0,1,2.092-.018c.01.684,0,1.367.013,2.051Q-900.336-178.319-901.392-178.308Z" fill="#333"/>
        <path id="路径_913" data-name="路径 913" d="M-961.852-176.222a14.958,14.958,0,0,0-.066,2.085c.7.017,1.4.007,2.092.009,0-.7,0-1.395-.005-2.094C-960.5-176.219-961.179-176.219-961.852-176.222Z" fill="#333"/>
        <path id="路径_914" data-name="路径 914" d="M-955.648-176.22c-.694,0-1.389-.009-2.083.011,0,.693,0,1.385,0,2.078.7.007,1.4,0,2.093,0C-955.643-174.825-955.636-175.523-955.648-176.22Z" fill="#333"/>
        <path id="路径_915" data-name="路径 915" d="M-961.918-172.029c0,.692,0,1.386,0,2.079.7.014,1.4,0,2.094.007,0-.7,0-1.4,0-2.093C-960.524-172.034-961.221-172.041-961.918-172.029Z" fill="#333"/>
        <path id="路径_916" data-name="路径 916" d="M-947.334-192.837a11.176,11.176,0,0,0-2.025-.075c-.009.7,0,1.4,0,2.093.7,0,1.393,0,2.092-.006A12.958,12.958,0,0,0-947.334-192.837Z" fill="#333"/>
        <path id="路径_917" data-name="路径 917" d="M-963.959-155.346q-.009,2.1,0,4.188c.681,0,1.363-.01,2.043.009-.005-.7,0-1.4,0-2.1.7-.011,1.4-.014,2.1,0-.012-.7,0-1.4-.008-2.1Q-961.892-155.343-963.959-155.346Z" fill="#333"/>
        <path id="路径_918" data-name="路径 918" d="M-936.856-205.418c0,.7,0,1.394,0,2.091h2.089v-2.093Z" fill="#333"/>
        <path id="路径_919" data-name="路径 919" d="M-949.362-186.634c.7,0,1.394,0,2.089-.005,0-.694,0-1.388,0-2.082-.7-.01-1.4-.005-2.095-.006C-949.362-188.03-949.366-187.332-949.362-186.634Z" fill="#333"/>
        <path id="路径_920" data-name="路径 920" d="M-955.641-151.159c0,.7,0,1.395,0,2.093-.7,0-1.392,0-2.089,0,0,.7,0,1.391.006,2.086,1.391,0,2.783,0,4.174,0,.011-1.4,0-2.79.006-4.185.7,0,1.394,0,2.091,0,0,.7,0,1.394,0,2.092.7,0,1.393-.005,2.089,0,0,.7-.006,1.393.007,2.088.7,0,1.391-.01,2.086.009,0,.695-.008,1.389.007,2.084.649-.012,1.3.017,1.949-.011.031-.036.091-.109.121-.146.035-1.339,0-2.679.015-4.018-.7-.02-1.392-.01-2.088-.01-.012-1.4,0-2.79-.005-4.185.685,0,1.371,0,2.055,0a7.765,7.765,0,0,1,0,1.606c.021.162.041.325.059.49.673-.009,1.347,0,2.02,0,.005-.7,0-1.392,0-2.087.7-.009,1.4-.015,2.1,0-.009-.67-.012-1.341-.023-2.008l.055-.06c.681-.075,1.367-.017,2.051-.035q0,1.047,0,2.094c-.678,0-1.359,0-2.037-.005,0,.7,0,1.4.006,2.1,1.219,0,2.439,0,3.659,0,.186.04.331-.088.484-.164-.035-.644-.014-1.286-.018-1.928.7,0,1.4,0,2.091,0a8.527,8.527,0,0,0,.093,2.02,4.973,4.973,0,0,0,1.926-.008,10.875,10.875,0,0,0,.073-2.012c.7,0,1.395,0,2.094-.006-.076-.695.164-1.464-.145-2.108-1.346.049-2.693.008-4.041.022,0-.679,0-1.356.005-2.034h-2.1c.007.677,0,1.355.005,2.033h-2.093c0-.7,0-1.4,0-2.092-.7,0-1.394,0-2.091,0,.011-.691-.022-1.384.017-2.074.69-.035,1.38,0,2.069-.015.01.7.006,1.393.006,2.092.7,0,1.4-.009,2.1.008-.012-.656-.025-1.312.01-1.967a6.6,6.6,0,0,0-2.11-.142q.006-.591.01-1.182c-1.533-.036-3.073.086-4.6-.063h-.085a2.384,2.384,0,0,1-1.618-.632c.007.454.053.906.063,1.36-.011.869,0,1.74-.007,2.609-1.394.021-2.788,0-4.181.01,0-.7-.007-1.4.007-2.1.7,0,1.391.009,2.086-.007,0-.671,0-1.342,0-2.012a14.993,14.993,0,0,0-2.1-.071c0-1.379,0-2.757,0-4.135-.7-.006-1.4,0-2.094,0v10.414c.7,0,1.4,0,2.092,0q0,2.091,0,4.18c-.7,0-1.4,0-2.094,0,0-.7,0-1.394,0-2.091-.7,0-1.395,0-2.093,0,0-1.395,0-2.79,0-4.185q-1.045,0-2.091,0c0,.7,0,1.4,0,2.093-.7,0-1.4,0-2.091,0,0-.7,0-1.392,0-2.088.7,0,1.394,0,2.089,0,0-.7.006-1.395,0-2.092-2.092-.005-4.182.011-6.273-.009.012-.649-.018-1.3.011-1.947l.146-.122c2.04-.035,4.081,0,6.121-.014q0-1.023,0-2.046,1.044,0,2.087,0c.01-.7,0-1.4.006-2.093h-.665a9.972,9.972,0,0,1-1.435-.055c.013-.678.006-1.357.007-2.035.7,0,1.393,0,2.09,0q0-1.047,0-2.093c1.394,0,2.79,0,4.185,0,0-.7,0-1.394,0-2.09.7,0,1.395,0,2.093-.006a11.106,11.106,0,0,0-.08-2.077c-1.368-.023-2.738,0-4.107-.009,0-2.078.007-4.156,0-6.234.7.008,1.4,0,2.1.01.01,1.4-.023,2.794.018,4.191q.964,0,1.929,0l.15-.224c-.011-1.321,0-2.642,0-3.961-.341-.009-.68-.011-1.019-.011l-1.069,0c-.011-.609,0-1.218-.011-1.825.076-.093.152-.185.229-.276.622.017,1.246,0,1.87.017,0,.695-.007,1.39.006,2.086.606-.012,1.215,0,1.823-.005a2.392,2.392,0,0,1,1.679-.833v0h.041c.034,0,.067,0,.1,0h.475c.013-.415.013-.829.011-1.243.7-.012,1.395-.007,2.094-.005,0,.335,0,.67-.007,1.006.037.061.108.179.145.242h1.934c.05-1.817-.01-3.636.034-5.452-.7.025-1.4.02-2.108.014,0-1.4,0-2.789,0-4.182-.682,0-1.362,0-2.042.005.006-.7,0-1.4.009-2.1q2.061.006,4.122,0c.015,2-.006,4,.01,6,.028.04.087.117.115.156l.154.122c.606.017,1.21,0,1.816,0,.005-1.4,0-2.79,0-4.184q1.045,0,2.09,0v2.092c.7,0,1.4,0,2.094,0,0,.7-.005,1.393,0,2.09.7,0,1.392,0,2.089,0,0-.7,0-1.392,0-2.089.7,0,1.395.006,2.092-.007,0-.694.007-1.387-.01-2.081-1.391-.01-2.783,0-4.174,0,0-.677,0-1.354,0-2.032.644,0,1.286,0,1.93,0,.042-.053.126-.159.169-.211q-.014-2.018,0-4.034c.643.012,1.286-.024,1.928.014l.149.12c.025.652,0,1.306.01,1.959.678,0,1.358,0,2.038,0,.011.694.007,1.389.006,2.085.7.018,1.391.01,2.086.01.011.7.006,1.4.007,2.093-.677,0-1.354,0-2.03,0-.126,1.279-.032,2.567-.06,3.85,0,.086-.007.254-.01.34-.68,0-1.359,0-2.037,0,.005,1.395-.013,2.791.009,4.187.678,0,1.355-.012,2.032.009,0-.7,0-1.406.065-2.107,1.375.007,2.749,0,4.124,0-.006,1.4.013,2.79-.011,4.185a14.975,14.975,0,0,1-2.086-.069c.007-.674,0-1.348.006-2.023-.68,0-1.359,0-2.038-.005a15.519,15.519,0,0,0-.058,1.831,2.388,2.388,0,0,1,.831,1.6h.053q.031,1.4.02,2.808c.394,0,.788,0,1.183,0,.016,1.394.006,2.786.006,4.18,2.093.015,4.185,0,6.278.007q0-1.047,0-2.092.82,0,1.642,0a.368.368,0,0,1,.455.447c-.007,1.247,0,2.494-.005,3.741,1.4,0,2.791.007,4.186,0,0-.7,0-1.394,0-2.089.7,0,1.391,0,2.086-.006,0-1.385.02-2.771-.008-4.154-1.339-.058-2.681,0-4.02-.029-.053.043-.16.125-.213.167q0,.966,0,1.931c-.614,0-1.23-.015-1.842.017-.086-.156-.244-.3-.19-.5q0-1.851,0-3.7c2.092-.009,4.184.017,6.276-.013q0-2.779,0-5.562a2.353,2.353,0,0,0-.047-.645c-.683-.029-1.366,0-2.049-.011,0,1.37,0,2.739.005,4.109-.2.026-.4.054-.6.082-.236,0-.47-.006-.7-.007l-.78,0c-.018-.7-.011-1.389-.008-2.084-.7.008-1.4-.051-2.1-.065.011-1.375,0-2.752,0-4.128h-2.092c0,1.395-.007,2.79.006,4.185.7,0,1.4,0,2.1,0-.024,1.38-.006,2.761-.01,4.14-.7,0-1.4,0-2.094,0q0-1.023,0-2.045a17.208,17.208,0,0,1-2.094-.06c.005-2.072,0-4.144,0-6.217-.7,0-1.4,0-2.093,0,0-.695,0-1.389,0-2.085,1.4-.008,2.79,0,4.185,0,0-.7,0-1.395,0-2.093q1.045,0,2.09,0c0-.7,0-1.394,0-2.09-2.092,0-4.184.007-6.275-.007,0-1.393.011-2.787-.01-4.179-.639.012-1.278-.023-1.916.012l-.159.12c-.021.653,0,1.308-.007,1.961-.7,0-1.393,0-2.09-.007.026-1.373-.07-2.752.06-4.121-.7-.019-1.4-.009-2.1-.008-.019-.7-.007-1.4-.009-2.095.68,0,1.36,0,2.04,0,.009-.7,0-1.4.005-2.1h-4.136c0-1.392,0-2.786,0-4.178-1.4-.01-2.79,0-4.186,0q0,1.045,0,2.091c.7,0,1.394,0,2.092,0,0,.7,0,1.394,0,2.091q1.044,0,2.091,0c0,.689,0,1.378,0,2.068-.7.043-1.393.014-2.089.025,0-.7,0-1.4,0-2.093-.7,0-1.4,0-2.092,0,0,.7,0,1.4.006,2.094q1.044,0,2.088,0h0c0,.7-.009,1.394.007,2.091.7,0,1.391-.009,2.086.007q0,1.016,0,2.033c-.7.008-1.391.005-2.085,0-.014.7-.01,1.393-.008,2.09-.7.009-1.395,0-2.094,0q0-2.07,0-4.137-1.043,0-2.086,0c-.011-.7-.005-1.4-.005-2.092-1.4,0-2.791-.01-4.186,0a11.592,11.592,0,0,0,.072,2.028,14.464,14.464,0,0,0,2.021.059c-.008.63.016,1.261-.008,1.892l-.1.152a13.526,13.526,0,0,0-1.912.057,11.394,11.394,0,0,0-.072,2.036c-.7,0-1.4.007-2.093-.01.011-.65-.017-1.3.011-1.953l.147-.115c.619-.042,1.241,0,1.861-.018a8.783,8.783,0,0,0,.066-1.9l-.111-.148c-1.335.005-2.671,0-4.006.006-.022-.694-.011-1.388-.01-2.082-.7-.023-1.4-.01-2.094-.013-.01.651.018,1.3-.012,1.95-.037.033-.113.1-.151.128-.641.039-1.284,0-1.925.016-.01-1.4,0-2.791-.006-4.186h6.227c.007-.7,0-1.4,0-2.093-1.378,0-2.756,0-4.136,0,0-1.393,0-2.787,0-4.181-.7-.007-1.391,0-2.087,0-.006.7-.005,1.392,0,2.089-.7.007-1.394,0-2.092,0-.006,2.092.005,4.185,0,6.277h-4.177c-.007-.7-.005-1.4-.005-2.092-.7,0-1.4,0-2.093,0q0,4.157,0,8.314c.7.008,1.4,0,2.093,0,0-.7,0-1.394.008-2.092.7,0,1.4,0,2.091,0-.012-.683-.005-1.366-.006-2.049,1.394,0,2.79,0,4.185,0,0,1.379,0,2.757,0,4.135.7,0,1.4,0,2.095-.007,0-.7-.011-1.391.01-2.088.649.013,1.3-.016,1.947.012l.12.145c.036.641,0,1.285.016,1.925-.7.022-1.393.01-2.09.01-.007.676,0,1.352-.006,2.028a12.493,12.493,0,0,0,2.039.066c0,.7,0,1.4.066,2.094.68-.007,1.358.009,2.038-.012-.011,1.4,0,2.8-.007,4.2h-2.042q0,.885,0,1.769c0,.084.01.251.013.335.677-.022,1.356-.008,2.034-.011,0,.7,0,1.4-.005,2.094-.678,0-1.353,0-2.029,0-.009-.3-.013-.6-.014-.9a9.627,9.627,0,0,1-.047-1.2c-1.378.011-2.757,0-4.136,0,0,.626.007,1.251,0,1.878a.36.36,0,0,1-.436.218c-.554,0-1.106-.005-1.659,0,0,.682-.005,1.364.009,2.046-.216,0-.432,0-.648-.006l-.081.058c-.455-.007-.909-.007-1.363-.006-.02-1.394,0-2.789-.01-4.184h-2.088c-.005-.7,0-1.394,0-2.089.7,0,1.4,0,2.093,0v2.093h2.09q.006-3.137,0-6.275-2.091,0-4.181,0c0,.7,0,1.4,0,2.093-.7,0-1.4,0-2.094,0q.006,1.046,0,2.091c-.7,0-1.392,0-2.089,0,0,.7.006,1.393-.005,2.092-.7,0-1.393-.01-2.088.008.015.638-.025,1.277.02,1.914.025.041.075.12.1.161,2.051.017,4.1,0,6.156.007,0,.69.006,1.38-.005,2.071-1.284.048-2.57.007-3.856.022a16.544,16.544,0,0,0-2.419.026c.005.669.006,1.337,0,2.008,2.787.025,5.576.005,8.365.009.014,2.092,0,4.186.006,6.278l-2.093,0q0,1.045,0,2.092c-.7,0-1.395,0-2.092,0,0,.7,0,1.392,0,2.089-1.393,0-2.788-.012-4.182.01,0,.694.007,1.388,0,2.084-.679,0-1.356,0-2.035,0-.009-.7-.007-1.391,0-2.087-.7-.015-1.392-.007-2.089-.005q-.009-1.048,0-2.095c.694,0,1.39,0,2.085-.006,0-2.735.021-5.471-.008-8.205-.034-.036-.1-.109-.134-.146a7.934,7.934,0,0,0-1.874.072c-.156-1.4-.031-2.811-.069-4.215-.7-.012-1.395-.005-2.093-.007,0,.676,0,1.353,0,2.029a8.173,8.173,0,0,1-2.085,0c-.021.7-.006,1.4-.013,2.1q1.979,0,3.959,0a.337.337,0,0,1,.232.429c0,.552,0,1.106,0,1.66-.7.011-1.391.006-2.088.006-.009.7,0,1.4,0,2.092.7,0,1.394,0,2.09,0,0,1.394,0,2.787,0,4.182h-2.092c0-.7,0-1.394,0-2.091-.7,0-1.4,0-2.094,0,0-1.394.007-2.789,0-4.183-.7,0-1.393,0-2.092,0,.01-2.076,0-4.153,0-6.229.7,0,1.391,0,2.088,0,.013-2.092,0-4.184.006-6.276q-2.092,0-4.187,0c-.008,4.215.024,8.434-.015,12.646a9.937,9.937,0,0,1,2.11-.131c0,.695,0,1.389,0,2.084-.7,0-1.393,0-2.09,0,0,.7,0,1.391,0,2.088q1.044,0,2.091,0c0,.547,0,1.092,0,1.64a.378.378,0,0,0,.461.456c.545,0,1.089-.006,1.635,0,0,.7,0,1.394,0,2.092.7,0,1.4,0,2.092,0,0,.7,0,1.392,0,2.089,1.394,0,2.786-.007,4.18.006,0,1.372,0,2.745,0,4.119-.337.011-.675.013-1.012.013h-.709l-.376-.007c0-.677,0-1.354,0-2.032-.7-.015-1.4-.007-2.093-.008.019,2.765-.039,5.541.028,8.3.683.057,1.378.007,2.065.015,0-1.394-.011-2.786.008-4.18q2.06,0,4.12,0c.015.694.008,1.39.008,2.084.7.018,1.391.008,2.088.01.008.7,0,1.393,0,2.09.7,0,1.395,0,2.092,0q0,1.047,0,2.093c-.68,0-1.36,0-2.041-.006.005.7,0,1.4,0,2.1C-958.393-151.166-957.017-151.155-955.641-151.159Zm12.521-6.259c.69-.041,1.384-.007,2.077-.018a12.638,12.638,0,0,1-.061,2.058,19.644,19.644,0,0,1-2.031.027C-943.124-156.04-943.155-156.73-943.12-157.418Zm25.043-18.8c.007.7,0,1.4,0,2.092-1.4,0-2.79.007-4.185,0,0-.7,0-1.39,0-2.085C-920.861-176.223-919.469-176.218-918.077-176.22Zm-20.793-20.822a15.055,15.055,0,0,1,2.006-.056c.01.7.008,1.4.008,2.094-.7,0-1.4,0-2.093,0A10.421,10.421,0,0,1-938.87-197.042Zm-18.864,31.288c.7-.011,1.4,0,2.1-.012-.017.7,0,1.4-.01,2.1-.687-.01-1.375.02-2.062-.014C-957.77-164.368-957.716-165.062-957.734-165.754Zm-4.184,0c.7-.013,1.4,0,2.094-.006,0,.7.007,1.395-.012,2.093-.649-.012-1.3.017-1.947-.011-.031-.036-.091-.109-.121-.146C-961.942-164.464-961.905-165.109-961.918-165.752Z" fill="#333"/>
        <path id="路径_921" data-name="路径 921" d="M-934.762-181.262c.7,0,1.393.007,2.089,0,0-.394,0-.787,0-1.18-.7-.007-1.4,0-2.095,0Z" fill="#333"/>
        <path id="路径_922" data-name="路径 922" d="M-926.443-153.251c0-.7,0-1.4,0-2.093h-2.042q0,1.047,0,2.094Z" fill="#333"/>
        <path id="路径_923" data-name="路径 923" d="M-930.575-157.436c-.013.635.01,1.27-.021,1.9.62.384,1.413.1,2.109.185-.01-.69.019-1.381-.014-2.071C-929.191-157.459-929.884-157.425-930.575-157.436Z" fill="#333"/>
        <path id="路径_924" data-name="路径 924" d="M-936.873-160.714c0,.3,0,.6,0,.9q.1.151.2.3c.634-.021,1.269-.008,1.9-.012.007.7.012,1.4,0,2.1.7-.017,1.4,0,2.1-.011q-.012-1.638.02-3.275Q-934.762-160.718-936.873-160.714Z" fill="#333"/>
        <path id="路径_925" data-name="路径 925" d="M-946.074-163.716c-.015-.68-.008-1.36-.007-2.04q-.593,0-1.186,0c-.007-.7-.006-1.391,0-2.085-.7-.014-1.4-.005-2.093-.007,0,.7,0,1.394,0,2.092.7,0,1.392,0,2.089,0,0,.679,0,1.358,0,2.036C-946.873-163.718-946.474-163.719-946.074-163.716Z" fill="#333"/>
        <path id="路径_926" data-name="路径 926" d="M-932.673-184.542c0,.7,0,1.4,0,2.094.691-.013,1.384.019,2.074-.016.038-.69.005-1.382.017-2.072C-931.278-184.547-931.974-184.54-932.673-184.542Z" fill="#333"/>
        <path id="路径_927" data-name="路径 927" d="M-925.537-167.846q1.638-.011,3.276,0c.006-.7,0-1.395,0-2.093-1.093,0-2.189,0-3.282,0C-925.536-169.245-925.539-168.545-925.537-167.846Z" fill="#333"/>
      </g>
      <g id="组_186" data-name="组 186">
        <path id="路径_928" data-name="路径 928" d="M-935.461-172.773H-936.9v2h1.427a.978.978,0,0,0,1.048-.962A1.036,1.036,0,0,0-935.461-172.773Z" fill="#333"/>
        <path id="路径_929" data-name="路径 929" d="M-935.818-176.75a5.766,5.766,0,0,0-5.759,5.759,5.766,5.766,0,0,0,5.759,5.76,5.766,5.766,0,0,0,5.759-5.76A5.766,5.766,0,0,0-935.818-176.75Zm1.309,9.273-1.157-1.751H-936.9v1.751h-1.719V-174.5h3.416a2.618,2.618,0,0,1,2.519,2.767,2.322,2.322,0,0,1-1.254,2.14l1.547,2.119Z" fill="#333"/>
        <path id="路径_930" data-name="路径 930" d="M-928.792-180.174h-14.051A2.158,2.158,0,0,0-945-178.016v14.05a2.158,2.158,0,0,0,2.158,2.158h14.051a2.158,2.158,0,0,0,2.158-2.158v-14.05A2.158,2.158,0,0,0-928.792-180.174Zm-7.026,16.458a7.282,7.282,0,0,1-7.274-7.275,7.283,7.283,0,0,1,7.274-7.274,7.284,7.284,0,0,1,7.275,7.274A7.283,7.283,0,0,1-935.818-163.716Z" fill="#333"/>
      </g>
    </g>
    <text id="理所设计公众号" transform="translate(-977.959 -106.18)" fill="#6a6a6a" font-size="12.04" font-family="PingFangSC-Regular, PingFang SC"><tspan x="0" y="0">理所设计公众号</tspan></text>
  </g>
</svg>
